<svg version="1.1" id="Layer_1" xmlns="http://www.w3.org/2000/svg" xmlns:xlink="http://www.w3.org/1999/xlink" x="0px" y="0px"
	 width="100%" viewBox="0 0 512 512" enable-background="new 0 0 512 512" xml:space="preserve">
<path fill="#000000" opacity="1.000000" stroke="none" 
	d="
M1.000000,247.000000 
	C1.000000,164.666672 1.000000,82.833336 1.000000,1.000000 
	C171.666672,1.000000 342.333344,1.000000 513.000000,1.000000 
	C513.000000,171.666672 513.000000,342.333344 513.000000,513.000000 
	C342.333344,513.000000 171.666672,513.000000 1.000000,513.000000 
	C1.000000,424.500000 1.000000,336.000000 1.000000,247.000000 
M420.275299,59.274006 
	C408.471375,66.160614 396.667450,73.047226 384.145508,79.974396 
	C378.162994,83.316887 372.180481,86.659378 366.016846,89.079865 
	C365.965546,79.665192 365.914276,70.250519 366.005249,59.929070 
	C366.002991,53.134357 366.243652,46.327389 365.901642,39.549820 
	C365.715546,35.862434 365.757294,31.600426 360.793335,29.322979 
	C352.016388,24.175186 343.054291,19.310389 334.549835,13.746126 
	C330.937317,11.382555 327.821960,11.424575 324.594849,13.224820 
	C317.276276,17.307461 310.133392,21.704960 302.278534,26.250702 
	C301.696899,26.544743 301.100189,26.812597 300.535797,27.136641 
	C283.966187,36.649876 267.365234,46.109222 250.846039,55.709236 
	C241.135559,61.352409 231.555801,67.220528 221.198013,73.023285 
	C212.777390,77.864685 204.340607,82.678238 195.939636,87.553513 
	C180.239563,96.664612 164.560272,105.811531 148.171417,115.019661 
	C142.822479,118.152939 137.481903,121.300560 132.123108,124.416878 
	C114.054306,134.924500 95.979034,145.420990 77.185020,155.980865 
	C66.982536,161.925659 56.727844,167.783188 46.595387,173.845047 
	C39.489258,178.096359 34.834549,184.493912 34.165840,192.689880 
	C33.481262,201.080338 34.109913,209.577957 34.018047,218.954636 
	C34.073494,236.963394 34.128944,254.972137 34.017761,273.907501 
	C34.063644,309.610535 34.109528,345.313568 34.017391,381.942810 
	C34.065800,413.289337 34.114204,444.635834 34.019428,476.739319 
	C35.212494,479.139496 35.770985,482.535645 37.707272,483.769318 
	C46.609432,489.441315 55.896305,494.509460 65.742256,500.156372 
	C69.271896,503.644775 72.788589,502.214874 76.353218,500.181335 
	C98.693878,487.436432 121.098984,474.803467 143.378174,461.952148 
	C168.032974,447.730438 192.538437,433.250000 217.178925,419.003265 
	C237.515396,407.245026 258.000793,395.744324 278.335144,383.982544 
	C303.532745,369.407745 328.680298,354.745361 353.765686,339.978455 
	C360.549408,335.985138 365.676636,329.869141 365.810120,322.014191 
	C366.259857,295.539642 365.899994,269.051392 366.339386,242.107559 
	C371.102112,233.937698 375.737671,225.689758 380.683258,217.632126 
	C383.023193,213.819809 385.188629,209.083725 388.743622,206.964218 
	C414.961517,191.333038 441.500031,176.239029 467.962708,161.019531 
	C473.897858,157.606049 479.896210,154.044998 479.933533,146.219208 
	C480.085083,114.436249 480.066620,82.651634 479.830841,50.869713 
	C479.816132,48.888054 477.404663,46.924183 475.783386,44.325039 
	C473.215790,42.726166 470.738251,40.952000 468.057098,39.574059 
	C464.910339,37.956829 461.798706,35.345093 457.203369,38.011452 
	C445.100983,44.997398 432.998596,51.983345 420.275299,59.274006 
z"/>
<path fill="#0175D1" opacity="1.000000" stroke="none" 
	d="
M476.108276,44.952034 
	C477.404663,46.924183 479.816132,48.888054 479.830841,50.869713 
	C480.066620,82.651634 480.085083,114.436249 479.933533,146.219208 
	C479.896210,154.044998 473.897858,157.606049 467.962708,161.019531 
	C441.500031,176.239029 414.961517,191.333038 388.743622,206.964218 
	C385.188629,209.083725 383.023193,213.819809 380.683258,217.632126 
	C375.737671,225.689758 371.102112,233.937698 365.796448,242.539215 
	C362.483215,247.635895 359.712921,252.300934 356.690857,256.640137 
	C356.439087,246.194305 356.439087,236.074341 356.439087,225.138031 
	C350.623199,227.953201 346.074158,230.155167 341.176514,232.295349 
	C335.641815,229.385849 330.353363,226.701874 325.344055,223.571304 
	C324.144043,222.821365 323.872803,220.585297 323.507996,219.098694 
	C327.933655,221.396530 332.025726,223.628357 336.929626,226.302963 
	C336.929626,216.752930 336.929626,208.360931 336.949432,199.504822 
	C336.935303,176.644577 336.901337,154.248428 336.898071,131.474960 
	C338.974213,127.408707 341.019714,123.719780 343.411072,119.959381 
	C361.042633,109.961067 378.333801,100.043594 395.592682,90.070190 
	C396.228302,89.702904 396.547791,88.788528 397.390106,88.100082 
	C410.097931,81.086372 422.430237,74.101692 435.127777,67.040451 
	C440.140289,64.399307 444.858276,61.953648 449.418732,59.242893 
	C456.671875,54.931572 463.819977,50.443474 471.385040,46.006283 
	C473.207794,45.638954 474.658051,45.295490 476.108276,44.952034 
M394.119476,166.496262 
	C394.464447,166.604370 394.809448,166.712479 395.695587,167.282410 
	C400.617035,171.672211 405.534271,170.058121 410.318970,167.121307 
	C419.892456,161.245193 424.322540,151.976151 427.624542,141.694473 
	C428.990723,142.246613 430.356934,142.798752 432.505890,143.465210 
	C438.272034,140.326355 444.038208,137.187500 449.796356,134.856400 
	C449.331604,138.046280 450.767456,139.862854 454.434540,140.718414 
	C460.144012,138.414536 465.261475,135.757935 463.632629,128.021378 
	C463.436676,127.090485 464.381958,125.204086 465.224701,124.884293 
	C471.281311,122.585960 470.660614,117.944893 469.515381,112.522972 
	C467.502777,111.992249 465.490143,111.461533 463.413574,110.101952 
	C463.328735,109.555954 463.243866,109.009964 463.023590,107.871666 
	C459.431213,103.163071 456.129700,107.697540 452.949066,107.478920 
	C455.537140,101.857895 458.125244,96.236862 460.927277,90.114311 
	C459.237152,89.162712 456.926880,86.982811 455.962921,87.469498 
	C451.492218,89.726662 446.747406,91.543167 444.466919,97.042053 
	C440.265411,107.173080 435.321777,116.998985 430.579010,126.900139 
	C429.836365,128.450516 428.522736,129.727386 427.428650,130.250824 
	C426.888763,124.399178 426.266388,118.591789 419.308807,115.455986 
	C414.647491,111.929176 409.983490,112.856758 405.410370,115.570206 
	C396.470886,120.874474 391.244141,129.018326 389.116516,138.899033 
	C387.814514,144.945618 387.857361,151.281784 387.291962,157.534836 
	C385.920380,157.640106 384.199432,157.772202 382.374969,157.168549 
	C382.229156,156.449249 382.083374,155.729935 381.731720,154.371780 
	C378.955536,150.542633 375.764923,153.991287 372.510742,153.137222 
	C374.801453,148.003418 377.092133,142.869598 379.791840,137.315445 
	C378.260925,136.205597 376.100586,133.815155 375.306915,134.205246 
	C371.668854,135.993423 366.962067,137.792252 365.275452,140.981522 
	C358.531311,153.734039 352.582489,166.923126 346.733826,180.125397 
	C344.412140,185.366226 346.129395,188.531937 351.609131,190.132889 
	C357.339996,187.048462 363.070892,183.964050 368.773956,181.693649 
	C368.415253,185.345490 370.059326,187.238541 374.437988,187.073776 
	C379.714600,184.814529 384.174561,182.107224 382.575073,175.048462 
	C382.339996,174.011124 383.443787,171.827103 384.381500,171.508667 
	C389.270508,169.848373 389.525452,166.133820 389.648438,162.484146 
	C391.121979,163.639633 392.595490,164.795105 394.026550,165.997787 
	C394.026550,165.997787 394.039459,165.935730 394.119476,166.496262 
z"/>
<path fill="#6ECB61" opacity="1.000000" stroke="none" 
	d="
M361.083282,29.964218 
	C365.757294,31.600426 365.715546,35.862434 365.901642,39.549820 
	C366.243652,46.327389 366.002991,53.134357 365.581177,60.431740 
	C363.837646,61.631172 362.493622,62.285385 361.202209,63.030777 
	C277.788055,111.176880 194.385483,159.343079 110.961357,207.471909 
	C95.413765,216.441589 79.781128,225.263885 63.921135,233.817368 
	C63.436096,227.352142 62.622227,221.168762 63.181618,215.112213 
	C63.656380,209.971878 65.105408,204.704910 67.215416,199.981857 
	C70.570732,192.471268 78.430977,189.994965 84.899406,186.036591 
	C91.961655,181.714844 98.982170,177.324905 106.376419,172.920029 
	C108.540619,172.044144 110.427834,171.349411 112.145699,170.360474 
	C128.007965,161.229065 143.874283,152.103683 159.665131,142.849792 
	C165.508606,139.425354 171.154694,135.664093 177.251801,131.986206 
	C179.426239,131.098785 181.323486,130.427597 183.040009,129.441727 
	C198.721619,120.435005 214.401886,111.425049 230.017044,102.303886 
	C236.717941,98.389740 243.264435,94.211258 250.242035,90.075348 
	C260.021210,84.689491 269.490204,79.468964 278.846680,74.053970 
	C296.558502,63.803356 314.205688,53.441097 332.200806,42.956795 
	C335.261505,41.254009 337.912567,39.525906 340.758636,38.224216 
	C347.410889,35.181721 352.916290,29.274584 361.083282,29.964218 
M130.851578,184.036255 
	C131.237610,182.776566 132.068893,181.457016 131.909409,180.270660 
	C131.643951,178.295746 131.268509,175.489014 129.961349,174.740524 
	C128.672653,174.002594 125.563080,174.767029 124.333618,175.973846 
	C122.181229,178.086563 120.240784,180.859787 119.397682,183.707474 
	C118.823235,185.647720 120.268097,188.185822 120.810051,190.456619 
	C123.038185,189.854218 125.440781,189.582779 127.432884,188.532654 
	C128.753052,187.836731 129.485138,186.025238 130.851578,184.036255 
M104.535416,202.131195 
	C106.408958,198.602280 109.103767,195.255081 109.935669,191.495667 
	C110.851433,187.357239 106.977882,185.050323 103.721222,187.790833 
	C100.884560,190.177902 98.434891,193.742813 97.303391,197.265594 
	C95.709457,202.228104 98.782677,204.368027 104.535416,202.131195 
M87.385986,208.455612 
	C87.655762,207.340668 88.296013,206.160416 88.113487,205.125229 
	C87.793831,203.312225 87.388367,200.534592 86.254211,200.083466 
	C84.702652,199.466339 81.725388,199.993500 80.625206,201.192169 
	C78.370590,203.648621 76.500160,206.717072 75.394127,209.858368 
	C74.845413,211.416809 75.778053,214.570969 77.068718,215.397369 
	C78.330780,216.205475 81.268158,215.519440 82.800301,214.491180 
	C84.599747,213.283539 85.677170,211.000076 87.385986,208.455612 
z"/>
<path fill="#E9E8E6" opacity="1.000000" stroke="none" 
	d="
M64.187744,234.154205 
	C79.781128,225.263885 95.413765,216.441589 110.961357,207.471909 
	C194.385483,159.343079 277.788055,111.176880 361.202209,63.030777 
	C362.493622,62.285385 363.837646,61.631172 365.510071,60.885124 
	C365.914276,70.250519 365.965546,79.665192 365.959412,89.858017 
	C362.658325,92.530609 359.414673,94.425064 356.127319,95.832932 
	C356.083588,89.671776 356.083588,83.997192 356.083588,77.122459 
	C352.965332,78.767967 351.505341,79.476852 350.103912,80.287071 
	C324.024628,95.364326 297.961914,110.470337 271.876068,125.536270 
	C238.008408,145.096634 204.119156,164.619598 170.247330,184.172745 
	C139.402054,201.978775 108.613861,219.884827 77.666359,237.511246 
	C74.047470,239.572418 72.912407,241.811737 72.917633,245.757965 
	C73.022842,325.228882 73.011719,404.699951 73.044258,484.170990 
	C73.044960,485.891388 73.283493,487.611694 73.468742,490.109528 
	C75.553482,488.972321 76.836929,488.306183 78.088272,487.584442 
	C95.965027,477.273254 113.838074,466.955658 131.710754,456.637390 
	C161.113159,439.662842 190.514206,422.685974 219.916626,405.711426 
	C246.581024,390.317535 273.245605,374.923950 299.911835,359.533295 
	C315.479492,350.548370 331.040741,341.552307 346.624908,332.596161 
	C353.101379,328.874207 356.282135,323.685883 356.134949,315.877869 
	C355.777069,296.891327 355.993042,277.893921 356.111115,258.656403 
	C356.477142,257.929932 356.709900,257.447968 356.942627,256.965973 
	C359.712921,252.300934 362.483215,247.635895 365.551636,242.769623 
	C365.899994,269.051392 366.259857,295.539642 365.810120,322.014191 
	C365.676636,329.869141 360.549408,335.985138 353.765686,339.978455 
	C328.680298,354.745361 303.532745,369.407745 278.335144,383.982544 
	C258.000793,395.744324 237.515396,407.245026 217.178925,419.003265 
	C192.538437,433.250000 168.032974,447.730438 143.378174,461.952148 
	C121.098984,474.803467 98.693878,487.436432 76.353218,500.181335 
	C72.788589,502.214874 69.271896,503.644775 65.369095,499.597748 
	C64.626198,497.050629 64.256462,495.062103 63.913368,492.601013 
	C63.958576,462.033722 63.990715,431.938965 63.957996,401.844269 
	C63.956253,400.241547 63.407330,398.639435 63.109779,396.566101 
	C63.024982,360.096375 62.943539,324.097534 62.904900,287.620941 
	C62.973209,269.796814 62.998714,252.450439 63.263535,235.005646 
	C63.731148,234.656204 63.959446,234.405212 64.187744,234.154205 
z"/>
<path fill="#C4C2C0" opacity="1.000000" stroke="none" 
	d="
M62.862091,288.098724 
	C62.943539,324.097534 63.024982,360.096375 62.747101,396.499878 
	C61.071426,396.255219 59.717434,395.671844 58.444878,394.945709 
	C50.338379,390.320221 42.249851,385.663239 34.155411,381.016602 
	C34.109528,345.313568 34.063644,309.610535 34.456741,273.468262 
	C38.823982,275.161804 42.746338,277.305542 46.681961,279.424622 
	C52.070061,282.325775 57.468231,285.208252 62.862091,288.098724 
z"/>
<path fill="#D6D4D2" opacity="1.000000" stroke="none" 
	d="
M34.086403,381.479706 
	C42.249851,385.663239 50.338379,390.320221 58.444878,394.945709 
	C59.717434,395.671844 61.071426,396.255219 62.750450,396.970795 
	C63.407330,398.639435 63.956253,400.241547 63.957996,401.844269 
	C63.990715,431.938965 63.958576,462.033722 63.584881,492.506500 
	C53.540707,487.250488 43.851658,481.616425 34.162609,475.982361 
	C34.114204,444.635834 34.065800,413.289337 34.086403,381.479706 
z"/>
<path fill="#3DB542" opacity="1.000000" stroke="none" 
	d="
M331.879730,43.125229 
	C314.205688,53.441097 296.558502,63.803356 278.846680,74.053970 
	C269.490204,79.468964 260.021210,84.689491 249.955444,89.891068 
	C240.177689,84.185364 231.047455,78.586411 221.917236,72.987465 
	C231.555801,67.220528 241.135559,61.352409 250.846039,55.709236 
	C267.365234,46.109222 283.966187,36.649876 300.535797,27.136641 
	C301.100189,26.812597 301.696899,26.544743 302.902374,26.279091 
	C312.977386,31.913395 322.428558,37.519310 331.879730,43.125229 
z"/>
<path fill="#81D672" opacity="1.000000" stroke="none" 
	d="
M63.921135,233.817368 
	C63.959446,234.405212 63.731148,234.656204 62.982574,234.803131 
	C53.029449,229.142258 43.596600,223.585464 34.163742,218.028671 
	C34.109913,209.577957 33.481262,201.080338 34.165840,192.689880 
	C34.834549,184.493912 39.489258,178.096359 46.595387,173.845047 
	C56.727844,167.783188 66.982536,161.925659 77.833183,156.148117 
	C87.661194,161.865143 96.841034,167.414932 106.020882,172.964706 
	C98.982170,177.324905 91.961655,181.714844 84.899406,186.036591 
	C78.430977,189.994965 70.570732,192.471268 67.215416,199.981857 
	C65.105408,204.704910 63.656380,209.971878 63.181618,215.112213 
	C62.622227,221.168762 63.436096,227.352142 63.921135,233.817368 
z"/>
<path fill="#81D672" opacity="1.000000" stroke="none" 
	d="
M221.557617,73.005371 
	C231.047455,78.586411 240.177689,84.185364 249.594482,89.968590 
	C243.264435,94.211258 236.717941,98.389740 230.017044,102.303886 
	C214.401886,111.425049 198.721619,120.435005 183.040009,129.441727 
	C181.323486,130.427597 179.426239,131.098785 176.950775,131.829468 
	C167.149933,126.143181 158.011124,120.543358 148.872330,114.943542 
	C164.560272,105.811531 180.239563,96.664612 195.939636,87.553513 
	C204.340607,82.678238 212.777390,77.864685 221.557617,73.005371 
z"/>
<path fill="#3DB542" opacity="1.000000" stroke="none" 
	d="
M148.521881,114.981598 
	C158.011124,120.543358 167.149933,126.143181 176.589767,131.899719 
	C171.154694,135.664093 165.508606,139.425354 159.665131,142.849792 
	C143.874283,152.103683 128.007965,161.229065 112.145699,170.360474 
	C110.427834,171.349411 108.540619,172.044144 106.376419,172.920029 
	C96.841034,167.414932 87.661194,161.865143 78.193787,156.118561 
	C95.979034,145.420990 114.054306,134.924500 132.123108,124.416878 
	C137.481903,121.300560 142.822479,118.152939 148.521881,114.981598 
z"/>
<path fill="#D6D4D2" opacity="1.000000" stroke="none" 
	d="
M34.090897,218.491653 
	C43.596600,223.585464 53.029449,229.142258 62.743259,234.901581 
	C62.998714,252.450439 62.973209,269.796814 62.904900,287.620941 
	C57.468231,285.208252 52.070061,282.325775 46.681961,279.424622 
	C42.746338,277.305542 38.823982,275.161804 34.540054,273.004974 
	C34.128944,254.972137 34.073494,236.963394 34.090897,218.491653 
z"/>
<path fill="#81D672" opacity="1.000000" stroke="none" 
	d="
M332.200806,42.956795 
	C322.428558,37.519310 312.977386,31.913395 303.222656,26.140965 
	C310.133392,21.704960 317.276276,17.307461 324.594849,13.224820 
	C327.821960,11.424575 330.937317,11.382555 334.549835,13.746126 
	C343.054291,19.310389 352.016388,24.175186 360.938293,29.643599 
	C352.916290,29.274584 347.410889,35.181721 340.758636,38.224216 
	C337.912567,39.525906 335.261505,41.254009 332.200806,42.956795 
z"/>
<path fill="#026DB6" opacity="1.000000" stroke="none" 
	d="
M356.171021,96.319519 
	C359.414673,94.425064 362.658325,92.530609 366.049988,90.319016 
	C372.180481,86.659378 378.162994,83.316887 384.666931,80.262161 
	C389.130402,83.076317 393.072510,85.602707 397.014587,88.129105 
	C396.547791,88.788528 396.228302,89.702904 395.592682,90.070190 
	C378.333801,100.043594 361.042633,109.961067 343.172638,119.713898 
	C338.700256,116.816238 334.812103,114.092606 331.218811,111.157242 
	C339.732788,106.070183 347.951904,101.194855 356.171021,96.319519 
z"/>
<path fill="#006CB5" opacity="1.000000" stroke="none" 
	d="
M471.012512,46.030151 
	C463.819977,50.443474 456.671875,54.931572 449.418732,59.242893 
	C444.858276,61.953648 440.140289,64.399307 434.812897,66.931122 
	C429.720612,64.255341 425.308411,61.612309 420.896210,58.969284 
	C432.998596,51.983345 445.100983,44.997398 457.808319,38.206997 
	C462.613037,40.945076 466.812775,43.487614 471.012512,46.030151 
z"/>
<path fill="#3C98DF" opacity="1.000000" stroke="none" 
	d="
M420.585754,59.121643 
	C425.308411,61.612309 429.720612,64.255341 434.447693,67.007690 
	C422.430237,74.101692 410.097931,81.086372 397.390106,88.100082 
	C393.072510,85.602707 389.130402,83.076317 385.025940,80.241882 
	C396.667450,73.047226 408.471375,66.160614 420.585754,59.121643 
z"/>
<path fill="#C4C2C0" opacity="1.000000" stroke="none" 
	d="
M34.091019,476.360840 
	C43.851658,481.616425 53.540707,487.250488 63.558247,492.979065 
	C64.256462,495.062103 64.626198,497.050629 65.020538,499.416687 
	C55.896305,494.509460 46.609432,489.441315 37.707272,483.769318 
	C35.770985,482.535645 35.212494,479.139496 34.091019,476.360840 
z"/>
<path fill="#3C98DF" opacity="1.000000" stroke="none" 
	d="
M471.385040,46.006287 
	C466.812775,43.487614 462.613037,40.945076 458.165955,38.160431 
	C461.798706,35.345093 464.910339,37.956829 468.057098,39.574059 
	C470.738251,40.952000 473.215790,42.726166 475.945831,44.638535 
	C474.658051,45.295490 473.207794,45.638954 471.385040,46.006287 
z"/>
<path fill="#FFFFFF" opacity="1.000000" stroke="none" 
	d="
M356.127319,95.832947 
	C347.951904,101.194855 339.732788,106.070183 330.919250,111.254440 
	C325.641602,115.234474 322.180115,119.523087 322.885315,126.440933 
	C322.757324,139.012634 322.740509,151.135422 322.802704,163.257797 
	C322.898071,181.849594 323.047760,200.441086 323.174438,219.032715 
	C323.872803,220.585297 324.144043,222.821365 325.344055,223.571304 
	C330.353363,226.701874 335.641815,229.385849 341.214172,232.738571 
	C340.035553,245.127960 342.002686,255.090195 355.497375,258.778503 
	C355.656769,258.822052 355.817627,258.860229 355.977844,258.900940 
	C355.993042,277.893921 355.777069,296.891327 356.134949,315.877869 
	C356.282135,323.685883 353.101379,328.874207 346.624908,332.596161 
	C331.040741,341.552307 315.479492,350.548370 299.911835,359.533295 
	C273.245605,374.923950 246.581024,390.317535 219.916626,405.711426 
	C190.514206,422.685974 161.113159,439.662842 131.710754,456.637390 
	C113.838074,466.955658 95.965027,477.273254 78.088272,487.584442 
	C76.836929,488.306183 75.553482,488.972321 73.468742,490.109528 
	C73.283493,487.611694 73.044960,485.891388 73.044258,484.170990 
	C73.011719,404.699951 73.022842,325.228882 72.917633,245.757965 
	C72.912407,241.811737 74.047470,239.572418 77.666359,237.511246 
	C108.613861,219.884827 139.402054,201.978775 170.247330,184.172745 
	C204.119156,164.619598 238.008408,145.096634 271.876068,125.536270 
	C297.961914,110.470337 324.024628,95.364326 350.103912,80.287071 
	C351.505341,79.476852 352.965332,78.767967 356.083588,77.122459 
	C356.083588,83.997192 356.083588,89.671776 356.127319,95.832947 
M107.813705,406.712097 
	C106.503448,410.970612 105.586082,415.211121 110.360390,418.020416 
	C115.875786,421.265686 121.485527,424.350616 127.673668,427.999420 
	C131.153839,430.433807 133.999741,428.315338 136.863266,426.663757 
	C179.387512,402.137421 221.904755,377.598938 264.419617,353.056396 
	C280.560852,343.738495 296.756561,334.512329 312.804810,325.036743 
	C323.391327,318.785980 324.736389,309.320343 316.745697,300.380432 
	C289.339783,269.718903 261.975220,239.020355 234.539978,208.385132 
	C232.696487,206.326630 230.396576,204.676880 227.838455,202.326584 
	C222.711472,199.270569 217.554642,196.263214 212.467514,193.142212 
	C208.792816,190.887787 205.310547,191.351639 202.517273,194.290222 
	C200.406113,196.511185 198.970154,199.373947 196.853882,202.574005 
	C186.924896,225.393066 176.995926,248.212128 166.552429,271.511963 
	C165.544189,273.782257 164.515991,276.043945 163.530853,278.324188 
	C154.661545,298.853760 145.799774,319.386536 136.383072,340.358154 
	C131.811050,350.826843 127.192055,361.275360 122.679672,371.769714 
	C117.786621,383.149323 112.992867,394.571655 107.813705,406.712097 
z"/>
<path fill="#005E87" opacity="1.000000" stroke="none" 
	d="
M323.507996,219.098694 
	C323.047760,200.441086 322.898071,181.849594 322.802704,163.257797 
	C322.740509,151.135422 322.757324,139.012634 323.193207,126.598618 
	C327.377167,128.202530 331.106659,130.097855 335.028961,132.370758 
	C335.470367,134.858841 335.925049,136.968338 335.935272,139.079987 
	C336.024078,157.446869 336.007935,175.814301 336.103394,194.181122 
	C336.113434,196.111771 336.641754,198.039734 336.929626,199.968933 
	C336.929626,208.360931 336.929626,216.752930 336.929626,226.302963 
	C332.025726,223.628357 327.933655,221.396530 323.507996,219.098694 
z"/>
<path fill="#FAFCFE" opacity="1.000000" stroke="none" 
	d="
M419.754852,115.942947 
	C426.266388,118.591789 426.888763,124.399178 427.320557,131.091553 
	C427.107269,135.132706 427.002106,138.333115 426.896912,141.533539 
	C424.322540,151.976151 419.892456,161.245193 410.318970,167.121307 
	C405.534271,170.058121 400.617035,171.672211 395.328552,166.799744 
	C394.654175,166.189972 394.346802,166.062851 394.039459,165.935730 
	C394.039459,165.935730 394.026550,165.997787 394.098297,165.569336 
	C389.756317,150.611267 392.414642,137.298279 401.612701,125.427940 
	C406.083832,119.657845 411.828674,115.503448 419.754852,115.942947 
M411.806946,126.968590 
	C410.271271,127.835526 408.472412,128.430145 407.245239,129.616241 
	C401.727814,134.948898 399.924866,148.772232 403.836304,157.230728 
	C407.609192,159.896896 411.100861,159.045532 414.165710,154.014725 
	C418.608795,146.721542 419.079987,138.694626 416.878265,130.627350 
	C416.477173,129.157791 413.998993,128.255127 411.806946,126.968590 
z"/>
<path fill="#FAFCFE" opacity="1.000000" stroke="none" 
	d="
M449.804352,134.048645 
	C444.038208,137.187500 438.272034,140.326355 432.184082,142.951630 
	C432.792694,138.628571 433.212097,134.597244 434.751160,131.052017 
	C439.048248,121.153847 444.130707,111.590546 448.266083,101.630547 
	C450.743103,95.664749 454.838745,92.337006 460.713348,90.615829 
	C458.125244,96.236862 455.537140,101.857895 452.579224,108.029785 
	C449.551910,114.682678 446.894440,120.784691 444.237000,126.886703 
	C444.620178,127.280830 445.003357,127.674965 445.386566,128.069092 
	C448.510437,125.316574 454.237885,122.572670 454.247040,119.809830 
	C454.270111,112.834549 458.034393,110.525734 463.158997,108.463974 
	C463.243866,109.009964 463.328735,109.555954 463.346130,110.883484 
	C463.423401,113.020638 463.568115,114.376266 463.798401,116.533569 
	C466.228119,115.123260 467.971680,114.111244 469.715210,113.099243 
	C470.660614,117.944893 471.281311,122.585960 465.224701,124.884293 
	C464.381958,125.204086 463.436676,127.090485 463.632629,128.021378 
	C465.261475,135.757935 460.144012,138.414536 454.220398,140.132156 
	C454.006256,137.159637 454.006256,134.773376 454.006256,131.419189 
	C451.921661,132.723663 450.863007,133.386154 449.804352,134.048645 
z"/>
<path fill="#FAFCFE" opacity="1.000000" stroke="none" 
	d="
M368.801758,180.879639 
	C363.070892,183.964050 357.339996,187.048462 351.260193,189.665482 
	C351.733185,185.558228 352.007111,181.678146 353.478149,178.322876 
	C358.187836,167.580231 363.479706,157.093933 368.261902,146.381485 
	C370.505798,141.355057 374.369385,138.934769 379.382843,137.735794 
	C377.092133,142.869598 374.801453,148.003418 372.684998,153.545486 
	C372.859283,153.953751 372.952545,153.874146 372.602295,153.839584 
	C372.040192,154.223450 371.828278,154.641861 371.377441,155.285538 
	C368.395752,161.575760 365.652985,167.640732 362.910217,173.705688 
	C365.591461,173.316620 367.590759,172.509323 369.218842,171.229736 
	C370.907654,169.902405 373.700226,167.869034 373.480225,166.574356 
	C372.273193,159.471024 377.331329,157.519608 381.937561,155.010635 
	C382.083374,155.729935 382.229156,156.449249 382.340179,157.901031 
	C382.448730,159.981400 382.592041,161.329285 382.663422,162.000473 
	C385.343719,162.000473 387.278320,162.000473 389.212891,162.000473 
	C389.525452,166.133820 389.270508,169.848373 384.381500,171.508667 
	C383.443787,171.827103 382.339996,174.011124 382.575073,175.048462 
	C384.174561,182.107224 379.714600,184.814529 373.921814,186.838531 
	C373.191315,184.062698 372.976959,181.522125 372.693054,178.157516 
	C371.037018,179.315994 369.919403,180.097824 368.801758,180.879639 
z"/>
<path fill="#429BE0" opacity="1.000000" stroke="none" 
	d="
M356.111084,258.656433 
	C355.817627,258.860229 355.656769,258.822052 355.497375,258.778503 
	C342.002686,255.090195 340.035553,245.127960 341.562744,232.800354 
	C346.074158,230.155167 350.623199,227.953201 356.439087,225.138031 
	C356.439087,236.074341 356.439087,246.194305 356.690857,256.640137 
	C356.709900,257.447968 356.477142,257.929932 356.111084,258.656433 
z"/>
<path fill="#A9B0B5" opacity="1.000000" stroke="none" 
	d="
M460.820312,90.365074 
	C454.838745,92.337006 450.743103,95.664749 448.266083,101.630547 
	C444.130707,111.590546 439.048248,121.153847 434.751160,131.052017 
	C433.212097,134.597244 432.792694,138.628571 431.792664,142.894470 
	C430.356934,142.798752 428.990723,142.246613 427.260742,141.614014 
	C427.002106,138.333115 427.107269,135.132706 427.342804,131.531494 
	C428.522736,129.727386 429.836365,128.450516 430.579010,126.900139 
	C435.321777,116.998985 440.265411,107.173080 444.466919,97.042053 
	C446.747406,91.543167 451.492218,89.726662 455.962921,87.469498 
	C456.926880,86.982811 459.237152,89.162712 460.820312,90.365074 
z"/>
<path fill="#A9AFB4" opacity="1.000000" stroke="none" 
	d="
M379.587341,137.525620 
	C374.369385,138.934769 370.505798,141.355057 368.261902,146.381485 
	C363.479706,157.093933 358.187836,167.580231 353.478149,178.322876 
	C352.007111,181.678146 351.733185,185.558228 350.888000,189.640259 
	C346.129395,188.531937 344.412140,185.366226 346.733826,180.125397 
	C352.582489,166.923126 358.531311,153.734039 365.275452,140.981522 
	C366.962067,137.792252 371.668854,135.993423 375.306915,134.205246 
	C376.100586,133.815155 378.260925,136.205597 379.587341,137.525620 
z"/>
<path fill="#ACB1B5" opacity="1.000000" stroke="none" 
	d="
M389.430664,162.242310 
	C387.278320,162.000473 385.343719,162.000473 382.663422,162.000473 
	C382.592041,161.329285 382.448730,159.981400 382.391907,158.268921 
	C384.199432,157.772202 385.920380,157.640106 387.291962,157.534836 
	C387.857361,151.281784 387.814514,144.945618 389.116516,138.899033 
	C391.244141,129.018326 396.470886,120.874474 405.410370,115.570206 
	C409.983490,112.856758 414.647491,111.929176 419.531830,115.699463 
	C411.828674,115.503448 406.083832,119.657845 401.612701,125.427940 
	C392.414642,137.298279 389.756317,150.611267 394.119537,165.545746 
	C392.595490,164.795105 391.121979,163.639633 389.430664,162.242310 
z"/>
<path fill="#04679C" opacity="1.000000" stroke="none" 
	d="
M334.836182,131.993179 
	C331.106659,130.097855 327.377167,128.202530 323.339722,126.149521 
	C322.180115,119.523087 325.641602,115.234474 330.624390,111.466171 
	C334.812103,114.092606 338.700256,116.816238 342.826813,119.785362 
	C341.019714,123.719780 338.974213,127.408707 336.562042,131.504517 
	C335.742310,131.938660 335.289246,131.965927 334.836182,131.993179 
z"/>
<path fill="#ACB3B9" opacity="1.000000" stroke="none" 
	d="
M381.834656,154.691208 
	C377.331329,157.519608 372.273193,159.471024 373.480225,166.574356 
	C373.700226,167.869034 370.907654,169.902405 369.218842,171.229736 
	C367.590759,172.509323 365.591461,173.316620 362.910217,173.705688 
	C365.652985,167.640732 368.395752,161.575760 371.705658,155.189194 
	C372.499390,154.536438 372.725983,154.205307 372.952576,153.874146 
	C372.952545,153.874146 372.859283,153.953751 372.818665,153.907837 
	C375.764923,153.991287 378.955536,150.542633 381.834656,154.691208 
z"/>
<path fill="#ACB3B9" opacity="1.000000" stroke="none" 
	d="
M463.091309,108.167816 
	C458.034393,110.525734 454.270111,112.834549 454.247040,119.809830 
	C454.237885,122.572670 448.510437,125.316574 445.386566,128.069092 
	C445.003357,127.674965 444.620178,127.280830 444.237000,126.886703 
	C446.894440,120.784691 449.551910,114.682678 452.455261,108.388565 
	C456.129700,107.697540 459.431213,103.163071 463.091309,108.167816 
z"/>
<path fill="#267AA7" opacity="1.000000" stroke="none" 
	d="
M335.028961,132.370758 
	C335.289246,131.965927 335.742310,131.938660 336.531372,131.881836 
	C336.901337,154.248428 336.935303,176.644577 336.949432,199.504822 
	C336.641754,198.039734 336.113434,196.111771 336.103394,194.181122 
	C336.007935,175.814301 336.024078,157.446869 335.935272,139.079987 
	C335.925049,136.968338 335.470367,134.858841 335.028961,132.370758 
z"/>
<path fill="#ACB1B5" opacity="1.000000" stroke="none" 
	d="
M368.787842,181.286652 
	C369.919403,180.097824 371.037018,179.315994 372.693054,178.157516 
	C372.976959,181.522125 373.191315,184.062698 373.571472,186.974396 
	C370.059326,187.238541 368.415253,185.345490 368.787842,181.286652 
z"/>
<path fill="#ACB1B5" opacity="1.000000" stroke="none" 
	d="
M449.800354,134.452515 
	C450.863007,133.386154 451.921661,132.723663 454.006256,131.419189 
	C454.006256,134.773376 454.006256,137.159637 453.933624,140.013763 
	C450.767456,139.862854 449.331604,138.046280 449.800354,134.452515 
z"/>
<path fill="#ACB3B9" opacity="1.000000" stroke="none" 
	d="
M469.615295,112.811096 
	C467.971680,114.111244 466.228119,115.123260 463.798401,116.533569 
	C463.568115,114.376266 463.423401,113.020638 463.378113,111.297913 
	C465.490143,111.461533 467.502777,111.992249 469.615295,112.811096 
z"/>
<path fill="#ACB1B5" opacity="1.000000" stroke="none" 
	d="
M394.079468,166.216003 
	C394.346802,166.062851 394.654175,166.189972 395.057983,166.568848 
	C394.809448,166.712479 394.464447,166.604370 394.079468,166.216003 
z"/>
<path fill="#FBFDFA" opacity="1.000000" stroke="none" 
	d="
M130.666031,184.374695 
	C129.485138,186.025238 128.753052,187.836731 127.432884,188.532654 
	C125.440781,189.582779 123.038185,189.854218 120.810059,190.456604 
	C120.268097,188.185822 118.823235,185.647720 119.397682,183.707474 
	C120.240784,180.859787 122.181229,178.086563 124.333618,175.973846 
	C125.563080,174.767029 128.672653,174.002594 129.961349,174.740524 
	C131.268509,175.489014 131.643951,178.295746 131.909409,180.270660 
	C132.068893,181.457016 131.237610,182.776566 130.666031,184.374695 
z"/>
<path fill="#FBFDFA" opacity="1.000000" stroke="none" 
	d="
M104.240280,202.351532 
	C98.782677,204.368027 95.709457,202.228104 97.303391,197.265594 
	C98.434891,193.742813 100.884560,190.177902 103.721222,187.790833 
	C106.977882,185.050323 110.851433,187.357239 109.935669,191.495667 
	C109.103767,195.255081 106.408958,198.602280 104.240280,202.351532 
z"/>
<path fill="#FBFDFA" opacity="1.000000" stroke="none" 
	d="
M87.226852,208.819397 
	C85.677170,211.000076 84.599747,213.283539 82.800301,214.491180 
	C81.268158,215.519440 78.330780,216.205475 77.068718,215.397369 
	C75.778053,214.570969 74.845413,211.416809 75.394127,209.858368 
	C76.500160,206.717072 78.370590,203.648621 80.625206,201.192169 
	C81.725388,199.993500 84.702652,199.466339 86.254211,200.083466 
	C87.388367,200.534592 87.793831,203.312225 88.113487,205.125229 
	C88.296013,206.160416 87.655762,207.340668 87.226852,208.819397 
z"/>
<path fill="#EFC349" opacity="1.000000" stroke="none" 
	d="
M228.308945,202.837021 
	C230.396576,204.676880 232.696487,206.326630 234.539978,208.385132 
	C261.975220,239.020355 289.339783,269.718903 316.745697,300.380432 
	C324.736389,309.320343 323.391327,318.785980 312.804810,325.036743 
	C296.756561,334.512329 280.560852,343.738495 264.419617,353.056396 
	C221.904755,377.598938 179.387512,402.137421 136.863266,426.663757 
	C133.999741,428.315338 131.153839,430.433807 127.326759,427.394287 
	C126.645752,423.208008 126.311653,419.626892 126.310333,415.940887 
	C127.651779,414.377167 128.929642,413.036224 129.628265,411.441559 
	C138.451508,391.301361 147.191284,371.124603 156.098633,350.630920 
	C161.620819,337.946075 167.049896,325.610229 172.356583,313.221985 
	C176.937286,302.528503 181.378799,291.775421 186.060944,280.736267 
	C187.508469,277.717133 188.834793,275.035828 190.036072,272.299622 
	C198.714615,252.532288 207.367874,232.753830 216.275055,212.759979 
	C219.366348,207.989655 222.594223,203.902893 228.308945,202.837021 
M232.263397,313.542969 
	C235.065964,286.503967 235.978027,259.418945 234.794189,231.438980 
	C228.152023,235.250687 222.356400,238.767776 216.372711,241.928848 
	C213.432327,243.482193 212.599808,245.511917 212.651276,248.704163 
	C212.849670,261.007080 212.371887,273.333069 212.930252,285.614777 
	C213.538071,298.983978 215.016800,312.313538 216.203094,326.720245 
	C221.603745,323.598694 226.229126,321.104004 230.619019,318.247406 
	C231.575073,317.625305 231.688599,315.708496 232.263397,313.542969 
M221.787003,359.710754 
	C230.410156,355.865906 234.616165,348.740784 235.523209,339.796539 
	C235.781906,337.245575 234.374130,333.354553 232.423782,332.084106 
	C230.521103,330.844696 226.380798,331.231018 224.211197,332.540802 
	C216.913727,336.946228 213.007584,343.795105 212.950226,352.447052 
	C212.913040,358.054413 215.213928,359.996185 221.787003,359.710754 
z"/>
<path fill="#CEA13B" opacity="1.000000" stroke="none" 
	d="
M185.881866,281.048676 
	C181.378799,291.775421 176.937286,302.528503 172.356583,313.221985 
	C167.049896,325.610229 161.620819,337.946075 155.751740,350.580414 
	C149.150986,347.210236 143.043396,343.564331 136.935791,339.918396 
	C145.799774,319.386536 154.661545,298.853760 163.530853,278.324188 
	C164.515991,276.043945 165.544189,273.782257 167.117432,271.420013 
	C173.748901,274.568268 179.815384,277.808472 185.881866,281.048676 
z"/>
<path fill="#DDB041" opacity="1.000000" stroke="none" 
	d="
M186.060944,280.736267 
	C179.815384,277.808472 173.748901,274.568268 167.374695,271.179626 
	C176.995926,248.212128 186.924896,225.393066 197.375137,202.350891 
	C203.940643,205.744827 209.984894,209.361877 216.029144,212.978912 
	C207.367874,232.753830 198.714615,252.532288 190.036072,272.299622 
	C188.834793,275.035828 187.508469,277.717133 186.060944,280.736267 
z"/>
<path fill="#DDB041" opacity="1.000000" stroke="none" 
	d="
M136.659424,340.138275 
	C143.043396,343.564331 149.150986,347.210236 155.605499,350.906677 
	C147.191284,371.124603 138.451508,391.301361 129.628265,411.441559 
	C128.929642,413.036224 127.651779,414.377167 126.001526,415.783569 
	C119.625221,412.479156 113.890518,409.227234 108.155807,405.975342 
	C112.992867,394.571655 117.786621,383.149323 122.679672,371.769714 
	C127.192055,361.275360 131.811050,350.826843 136.659424,340.138275 
z"/>
<path fill="#FED758" opacity="1.000000" stroke="none" 
	d="
M216.275055,212.759979 
	C209.984894,209.361877 203.940643,205.744827 197.565033,202.039429 
	C198.970154,199.373947 200.406113,196.511185 202.517273,194.290222 
	C205.310547,191.351639 208.792816,190.887787 212.467514,193.142212 
	C217.554642,196.263214 222.711472,199.270569 228.073700,202.581802 
	C222.594223,203.902893 219.366348,207.989655 216.275055,212.759979 
z"/>
<path fill="#FED655" opacity="1.000000" stroke="none" 
	d="
M107.984756,406.343719 
	C113.890518,409.227234 119.625221,412.479156 125.668747,415.888428 
	C126.311653,419.626892 126.645752,423.208008 127.017075,427.147156 
	C121.485527,424.350616 115.875786,421.265686 110.360390,418.020416 
	C105.586082,415.211121 106.503448,410.970612 107.984756,406.343719 
z"/>
<path fill="#0677D1" opacity="1.000000" stroke="none" 
	d="
M403.546387,156.581924 
	C399.924866,148.772232 401.727814,134.948898 407.245239,129.616241 
	C408.472412,128.430145 410.271271,127.835526 412.235626,127.492172 
	C412.837189,131.800705 413.255402,135.593750 413.130676,139.368881 
	C412.889313,146.674988 410.607574,152.999863 403.546387,156.581924 
z"/>
<path fill="#AAB0B6" opacity="1.000000" stroke="none" 
	d="
M403.691345,156.906326 
	C410.607574,152.999863 412.889313,146.674988 413.130676,139.368881 
	C413.255402,135.593750 412.837189,131.800705 412.571991,127.553253 
	C413.998993,128.255127 416.477173,129.157791 416.878265,130.627350 
	C419.079987,138.694626 418.608795,146.721542 414.165710,154.014725 
	C411.100861,159.045532 407.609192,159.896896 403.691345,156.906326 
z"/>
<path fill="#0175D1" opacity="1.000000" stroke="none" 
	d="
M372.602325,153.839600 
	C372.725983,154.205307 372.499390,154.536438 371.944580,154.963928 
	C371.828278,154.641861 372.040192,154.223450 372.602325,153.839600 
z"/>
<path fill="#FFFFFD" opacity="1.000000" stroke="none" 
	d="
M232.226776,313.965454 
	C231.688599,315.708496 231.575073,317.625305 230.619019,318.247406 
	C226.229126,321.104004 221.603745,323.598694 216.203094,326.720245 
	C215.016800,312.313538 213.538071,298.983978 212.930252,285.614777 
	C212.371887,273.333069 212.849670,261.007080 212.651276,248.704163 
	C212.599808,245.511917 213.432327,243.482193 216.372711,241.928848 
	C222.356400,238.767776 228.152023,235.250687 234.794189,231.438980 
	C235.978027,259.418945 235.065964,286.503967 232.226776,313.965454 
z"/>
<path fill="#FFFEFC" opacity="1.000000" stroke="none" 
	d="
M221.403076,359.805786 
	C215.213928,359.996185 212.913040,358.054413 212.950226,352.447052 
	C213.007584,343.795105 216.913727,336.946228 224.211197,332.540802 
	C226.380798,331.231018 230.521103,330.844696 232.423782,332.084106 
	C234.374130,333.354553 235.781906,337.245575 235.523209,339.796539 
	C234.616165,348.740784 230.410156,355.865906 221.403076,359.805786 
z"/>
</svg>